<mxfile host="app.diagrams.net" agent="Mozilla/5.0 (Windows NT 10.0; Win64; x64) AppleWebKit/537.36 (KHTML, like Gecko) Chrome/132.0.0.0 Safari/537.36" version="26.0.10">
  <diagram name="Seite-1" id="FLnR7AAT3rXS8HFD26H0">
    <mxGraphModel dx="1434" dy="780" grid="1" gridSize="10" guides="1" tooltips="1" connect="1" arrows="1" fold="1" page="1" pageScale="1" pageWidth="827" pageHeight="1169" math="0" shadow="0">
      <root>
        <mxCell id="0" />
        <mxCell id="1" parent="0" />
        <mxCell id="r_ixhwFZEJ4cjQ6jnPQo-1" value="" style="rounded=0;whiteSpace=wrap;html=1;connectable=0;allowArrows=0;" vertex="1" parent="1">
          <mxGeometry x="80" y="160" width="650" height="520" as="geometry" />
        </mxCell>
        <mxCell id="r_ixhwFZEJ4cjQ6jnPQo-2" value="&lt;b&gt;FUNREST&amp;nbsp;&lt;/b&gt;&lt;div&gt;&lt;b&gt;Hotelbuchung&lt;/b&gt;&lt;/div&gt;" style="text;html=1;align=center;verticalAlign=middle;whiteSpace=wrap;rounded=0;" vertex="1" parent="1">
          <mxGeometry x="304" y="160" width="220" height="30" as="geometry" />
        </mxCell>
        <mxCell id="r_ixhwFZEJ4cjQ6jnPQo-3" value="Gast" style="shape=umlActor;verticalLabelPosition=bottom;verticalAlign=top;html=1;outlineConnect=0;" vertex="1" parent="1">
          <mxGeometry x="20" y="230" width="30" height="60" as="geometry" />
        </mxCell>
        <mxCell id="r_ixhwFZEJ4cjQ6jnPQo-6" value="Hotelmitarbeiter" style="shape=umlActor;verticalLabelPosition=bottom;verticalAlign=top;html=1;outlineConnect=0;" vertex="1" parent="1">
          <mxGeometry x="760" y="260" width="30" height="60" as="geometry" />
        </mxCell>
        <mxCell id="r_ixhwFZEJ4cjQ6jnPQo-7" value="Zimmer auswählen" style="ellipse;whiteSpace=wrap;html=1;" vertex="1" parent="1">
          <mxGeometry x="140" y="220" width="120" height="80" as="geometry" />
        </mxCell>
        <mxCell id="r_ixhwFZEJ4cjQ6jnPQo-8" value="" style="endArrow=open;html=1;rounded=0;exitX=1;exitY=0.5;exitDx=0;exitDy=0;dashed=1;endFill=0;entryX=0;entryY=0.5;entryDx=0;entryDy=0;" edge="1" parent="1" source="r_ixhwFZEJ4cjQ6jnPQo-7" target="r_ixhwFZEJ4cjQ6jnPQo-9">
          <mxGeometry width="50" height="50" relative="1" as="geometry">
            <mxPoint x="390" y="430" as="sourcePoint" />
            <mxPoint x="370" y="260" as="targetPoint" />
          </mxGeometry>
        </mxCell>
        <mxCell id="r_ixhwFZEJ4cjQ6jnPQo-10" value="&amp;lt;&amp;lt;include&amp;gt;&amp;gt;" style="edgeLabel;html=1;align=center;verticalAlign=middle;resizable=0;points=[];" vertex="1" connectable="0" parent="r_ixhwFZEJ4cjQ6jnPQo-8">
          <mxGeometry x="-0.3882" y="-1" relative="1" as="geometry">
            <mxPoint x="14" y="9" as="offset" />
          </mxGeometry>
        </mxCell>
        <mxCell id="r_ixhwFZEJ4cjQ6jnPQo-9" value="Verfügbarkeit prüfen" style="ellipse;whiteSpace=wrap;html=1;" vertex="1" parent="1">
          <mxGeometry x="345" y="220" width="120" height="80" as="geometry" />
        </mxCell>
        <mxCell id="r_ixhwFZEJ4cjQ6jnPQo-12" value="" style="endArrow=none;html=1;rounded=0;entryX=0;entryY=0.5;entryDx=0;entryDy=0;exitX=0.5;exitY=0.5;exitDx=0;exitDy=0;exitPerimeter=0;" edge="1" parent="1" source="r_ixhwFZEJ4cjQ6jnPQo-3" target="r_ixhwFZEJ4cjQ6jnPQo-7">
          <mxGeometry width="50" height="50" relative="1" as="geometry">
            <mxPoint x="390" y="430" as="sourcePoint" />
            <mxPoint x="440" y="380" as="targetPoint" />
          </mxGeometry>
        </mxCell>
        <mxCell id="r_ixhwFZEJ4cjQ6jnPQo-13" value="Zimmer buchen" style="ellipse;whiteSpace=wrap;html=1;" vertex="1" parent="1">
          <mxGeometry x="140" y="380" width="120" height="80" as="geometry" />
        </mxCell>
        <mxCell id="r_ixhwFZEJ4cjQ6jnPQo-14" value="" style="endArrow=openThin;html=1;rounded=0;entryX=0.5;entryY=1;entryDx=0;entryDy=0;exitX=0.5;exitY=0;exitDx=0;exitDy=0;endFill=0;dashed=1;" edge="1" parent="1" source="r_ixhwFZEJ4cjQ6jnPQo-13" target="r_ixhwFZEJ4cjQ6jnPQo-7">
          <mxGeometry width="50" height="50" relative="1" as="geometry">
            <mxPoint x="390" y="430" as="sourcePoint" />
            <mxPoint x="440" y="380" as="targetPoint" />
          </mxGeometry>
        </mxCell>
        <mxCell id="r_ixhwFZEJ4cjQ6jnPQo-15" value="Wenn Zimmer gewünscht" style="shape=note;whiteSpace=wrap;html=1;backgroundOutline=1;darkOpacity=0.05;" vertex="1" parent="1">
          <mxGeometry x="230" y="300" width="140" height="80" as="geometry" />
        </mxCell>
        <mxCell id="r_ixhwFZEJ4cjQ6jnPQo-16" value="" style="endArrow=none;dashed=1;html=1;dashPattern=1 3;strokeWidth=2;rounded=0;entryX=0;entryY=0.5;entryDx=0;entryDy=0;entryPerimeter=0;" edge="1" parent="1" target="r_ixhwFZEJ4cjQ6jnPQo-15">
          <mxGeometry width="50" height="50" relative="1" as="geometry">
            <mxPoint x="200" y="340" as="sourcePoint" />
            <mxPoint x="440" y="380" as="targetPoint" />
          </mxGeometry>
        </mxCell>
        <mxCell id="r_ixhwFZEJ4cjQ6jnPQo-17" value="Rechnung stellen" style="ellipse;whiteSpace=wrap;html=1;" vertex="1" parent="1">
          <mxGeometry x="560" y="250" width="120" height="80" as="geometry" />
        </mxCell>
        <mxCell id="r_ixhwFZEJ4cjQ6jnPQo-18" value="" style="endArrow=none;html=1;rounded=0;entryX=0.5;entryY=0.5;entryDx=0;entryDy=0;entryPerimeter=0;exitX=1;exitY=0.5;exitDx=0;exitDy=0;" edge="1" parent="1" source="r_ixhwFZEJ4cjQ6jnPQo-17" target="r_ixhwFZEJ4cjQ6jnPQo-6">
          <mxGeometry width="50" height="50" relative="1" as="geometry">
            <mxPoint x="390" y="430" as="sourcePoint" />
            <mxPoint x="440" y="380" as="targetPoint" />
          </mxGeometry>
        </mxCell>
        <mxCell id="r_ixhwFZEJ4cjQ6jnPQo-19" value="Eintragung neuer Daten" style="ellipse;whiteSpace=wrap;html=1;" vertex="1" parent="1">
          <mxGeometry x="560" y="360" width="120" height="80" as="geometry" />
        </mxCell>
        <mxCell id="r_ixhwFZEJ4cjQ6jnPQo-20" value="" style="endArrow=none;html=1;rounded=0;entryX=0.5;entryY=0.5;entryDx=0;entryDy=0;entryPerimeter=0;exitX=1;exitY=0.5;exitDx=0;exitDy=0;" edge="1" parent="1" source="r_ixhwFZEJ4cjQ6jnPQo-19" target="r_ixhwFZEJ4cjQ6jnPQo-6">
          <mxGeometry width="50" height="50" relative="1" as="geometry">
            <mxPoint x="390" y="430" as="sourcePoint" />
            <mxPoint x="440" y="380" as="targetPoint" />
          </mxGeometry>
        </mxCell>
        <mxCell id="r_ixhwFZEJ4cjQ6jnPQo-23" value="Übertrag in die Datenbank" style="ellipse;whiteSpace=wrap;html=1;" vertex="1" parent="1">
          <mxGeometry x="353.5" y="400" width="120" height="80" as="geometry" />
        </mxCell>
        <mxCell id="r_ixhwFZEJ4cjQ6jnPQo-24" value="" style="endArrow=classic;html=1;rounded=0;exitX=0;exitY=0.5;exitDx=0;exitDy=0;entryX=1;entryY=0.5;entryDx=0;entryDy=0;dashed=1;" edge="1" parent="1" source="r_ixhwFZEJ4cjQ6jnPQo-19" target="r_ixhwFZEJ4cjQ6jnPQo-23">
          <mxGeometry width="50" height="50" relative="1" as="geometry">
            <mxPoint x="390" y="430" as="sourcePoint" />
            <mxPoint x="440" y="380" as="targetPoint" />
          </mxGeometry>
        </mxCell>
        <mxCell id="r_ixhwFZEJ4cjQ6jnPQo-25" value="&amp;lt;&amp;lt;include&amp;gt;&amp;gt;" style="text;html=1;align=center;verticalAlign=middle;whiteSpace=wrap;rounded=0;" vertex="1" parent="1">
          <mxGeometry x="500" y="425" width="60" height="30" as="geometry" />
        </mxCell>
        <mxCell id="r_ixhwFZEJ4cjQ6jnPQo-26" value="Admin" style="shape=umlActor;verticalLabelPosition=bottom;verticalAlign=top;html=1;outlineConnect=0;" vertex="1" parent="1">
          <mxGeometry x="760" y="460" width="30" height="60" as="geometry" />
        </mxCell>
        <mxCell id="r_ixhwFZEJ4cjQ6jnPQo-27" value="" style="endArrow=block;html=1;rounded=0;exitX=0.5;exitY=0;exitDx=0;exitDy=0;exitPerimeter=0;endFill=0;" edge="1" parent="1" source="r_ixhwFZEJ4cjQ6jnPQo-26">
          <mxGeometry width="50" height="50" relative="1" as="geometry">
            <mxPoint x="390" y="430" as="sourcePoint" />
            <mxPoint x="775" y="340" as="targetPoint" />
          </mxGeometry>
        </mxCell>
        <mxCell id="r_ixhwFZEJ4cjQ6jnPQo-28" value="Kundenbewertung freigeben" style="ellipse;whiteSpace=wrap;html=1;" vertex="1" parent="1">
          <mxGeometry x="530" y="470" width="120" height="80" as="geometry" />
        </mxCell>
        <mxCell id="r_ixhwFZEJ4cjQ6jnPQo-29" value="Kundenbewertung moderieren" style="ellipse;whiteSpace=wrap;html=1;" vertex="1" parent="1">
          <mxGeometry x="530" y="570" width="120" height="80" as="geometry" />
        </mxCell>
        <mxCell id="r_ixhwFZEJ4cjQ6jnPQo-31" value="" style="endArrow=none;html=1;rounded=0;entryX=0.5;entryY=0.5;entryDx=0;entryDy=0;entryPerimeter=0;exitX=1;exitY=0.5;exitDx=0;exitDy=0;" edge="1" parent="1" source="r_ixhwFZEJ4cjQ6jnPQo-28" target="r_ixhwFZEJ4cjQ6jnPQo-26">
          <mxGeometry width="50" height="50" relative="1" as="geometry">
            <mxPoint x="390" y="430" as="sourcePoint" />
            <mxPoint x="440" y="380" as="targetPoint" />
          </mxGeometry>
        </mxCell>
        <mxCell id="r_ixhwFZEJ4cjQ6jnPQo-32" value="" style="endArrow=none;html=1;rounded=0;entryX=0.5;entryY=0.5;entryDx=0;entryDy=0;entryPerimeter=0;exitX=1;exitY=0.5;exitDx=0;exitDy=0;" edge="1" parent="1" source="r_ixhwFZEJ4cjQ6jnPQo-29" target="r_ixhwFZEJ4cjQ6jnPQo-26">
          <mxGeometry width="50" height="50" relative="1" as="geometry">
            <mxPoint x="390" y="430" as="sourcePoint" />
            <mxPoint x="440" y="380" as="targetPoint" />
          </mxGeometry>
        </mxCell>
        <mxCell id="r_ixhwFZEJ4cjQ6jnPQo-33" value="Bewertung abgeben" style="ellipse;whiteSpace=wrap;html=1;" vertex="1" parent="1">
          <mxGeometry x="140" y="480" width="120" height="80" as="geometry" />
        </mxCell>
        <mxCell id="r_ixhwFZEJ4cjQ6jnPQo-34" value="" style="endArrow=none;html=1;rounded=0;entryX=0.5;entryY=0.5;entryDx=0;entryDy=0;entryPerimeter=0;exitX=0;exitY=0.5;exitDx=0;exitDy=0;" edge="1" parent="1" source="r_ixhwFZEJ4cjQ6jnPQo-33" target="r_ixhwFZEJ4cjQ6jnPQo-3">
          <mxGeometry width="50" height="50" relative="1" as="geometry">
            <mxPoint x="390" y="430" as="sourcePoint" />
            <mxPoint x="440" y="380" as="targetPoint" />
          </mxGeometry>
        </mxCell>
      </root>
    </mxGraphModel>
  </diagram>
</mxfile>
